<svg xmlns="http://www.w3.org/2000/svg" viewBox="0 0 32 32" id="GraphicTablet">
  <path d="M3 26.5h7c.2763672 0 .5-.2236328.5-.5s-.2236328-.5-.5-.5h-1.5921021c.0560303-.1571655.0921021-.3238525.0921021-.5V9c0-.1761475-.0360718-.3428345-.0921021-.5h11.5921021c.2763672 0 .5-.2236328.5-.5s-.2236328-.5-.5-.5H3c-.8271484 0-1.5.6728516-1.5 1.5v16c0 .8271484.6728516 1.5 1.5 1.5zm-.5-17.5c0-.2758789.2246094-.5.5-.5h4c.2753906 0 .5.2241211.5.5v16c0 .2758789-.2246094.5-.5.5H3c-.2753906 0-.5-.2241211-.5-.5V9zM29 7.5c-.2763672 0-.5.2236328-.5.5s.2236328.5.5.5c.2753906 0 .5.2241211.5.5v16c0 .2758789-.2246094.5-.5.5h-15c-.2763672 0-.5.2236328-.5.5s.2236328.5.5.5h15c.8271484 0 1.5-.6728516 1.5-1.5V9c0-.8271484-.6728516-1.5-1.5-1.5z" fill="#000000" class="color000000 svgShape"></path>
  <circle cx="5" cy="12" r=".5" fill="#000000" class="color000000 svgShape"></circle>
  <circle cx="5" cy="17" r=".5" fill="#000000" class="color000000 svgShape"></circle>
  <circle cx="5" cy="22" r=".5" fill="#000000" class="color000000 svgShape"></circle>
  <path d="m15.5,15v2c0,.2763672.2236328.5.5.5h2c.1328125,0,.2597656-.0527344.3535156-.1464844l9-9c.1953125-.1953125.1953125-.5117188,0-.7070312l-2-2c-.1953125-.1953125-.5117188-.1953125-.7070312,0l-9,9c-.09375.09375-.1464844.2207031-.1464844.3535156Zm1,.5921021c.423584.151062.7568359.484314.9078979.9078979h-.9078979v-.9078979Zm8.5-8.8850708l1.2929688,1.2929688-8.0031128,8.0031128c-.2523193-.5772705-.7156982-1.0406494-1.2929688-1.2929688l8.0031128-8.0031128Z" fill="#000000" class="color000000 svgShape"></path>
  <path d="m25.5,22.5h-2.5c-.2763672,0-.5.2236328-.5.5s.2236328.5.5.5h2.5c1.1025391,0,2-.8969727,2-2s-.8974609-2-2-2h-13c-.5517578,0-1-.4487305-1-1s.4482422-1,1-1c.2763672,0,.5-.2236328.5-.5s-.2236328-.5-.5-.5c-1.1025391,0-2,.8969727-2,2s.8974609,2,2,2h13c.5517578,0,1,.4487305,1,1s-.4482422,1-1,1Z" fill="#000000" class="color000000 svgShape"></path>
  <circle cx="12" cy="26" r=".5" fill="#000000" class="color000000 svgShape"></circle>
</svg>
