<svg xmlns="http://www.w3.org/2000/svg" viewBox="0 0 512 512" id="Wig">
  <path fill="#1f4389" d="M149.9 483.18c13-9.26 53-35.27 109.88-34.09a183.76 183.76 0 0 1 99.59 32.17c17.29-5.58 64.4-23.36 94.1-70.78 40.06-64 25-144.54-9.12-194.17-51-74.1-144.64-79.27-219.59-83.4-54.46-3-88.48-4.88-119.24 17.59-62.72 45.83-61.88 156.39-33.23 229.36 21.02 53.52 57.04 86.93 77.61 103.32Z" class="color9857bd svgShape"></path>
  <path fill="#faf9f6" d="M160.26 504.37c-34.48.5-84.49-6.45-117.75-46.59-68-82.08-29.94-259.45 54-350.13C169.21 29.15 263.21 29.73 275 30c18.18.43 58 1.83 97.11 25.41 132.82 80.2 190.81 329.59 94.64 415.78-15.82 14.18-48.42 35.19-113.49 33.18C361.91 472 372.8 430 384.73 380.63c19.58-80.93 22.13-99.57 11-111.68-23.25-25.33-74.31 14.18-134.16-4-50.57-15.32-83.78-64.45-104.35-105.06-13.83 27.82-47.61 104.49-38.22 205.41a369.76 369.76 0 0 0 41.26 139.07Z" class="coloraf66da svgShape"></path>
  <path fill="#1f4389" d="M372.07 55.41a164.67 164.67 0 0 0-26.69-12.95c130.51 82.3 186.73 328.23 91.37 413.73-12.75 11.43-36.42 27.29-79.19 32l-4.3 16.22c65.07 2 97.67-19 113.49-33.18 96.17-86.23 38.18-335.62-94.68-415.82Z" class="color9857bd svgShape"></path>
  <path d="M520.52 308.05c-4.72-50.1-20.73-102.73-45.1-148.2C449.09 110.71 414.69 72.38 376 49c-41.59-25.1-84.61-26.11-100.81-26.49C257.17 22.07 163.8 24 91 102.56 49.29 147.64 17.18 215.71 5.15 284.65c-6 34.52-6.75 68.31-2.1 97.72 5.13 32.42 16.47 59.41 33.69 80.19 34.57 41.73 86.29 49.86 123.63 49.31a7.5 7.5 0 0 0 6.51-11q-3.93-7.41-7.51-15.06c19.27-12.68 54.35-30.13 100.26-29.2 41.64.86 73.62 16.75 91.12 28q-2.36 9-4.74 17.89a7.5 7.5 0 0 0 7 9.43c3 .1 6 .14 8.91.14 46.81 0 83.72-11.83 109.82-35.23 19.83-17.77 34.06-42.37 42.29-73.11 7.62-28.43 9.8-60.59 6.49-95.68Zm-165.79 161.3c-19.68-11.88-52.69-26.89-94.79-27.76-48.23-1-85.4 16.69-106.72 30.31a368 368 0 0 1-26.77-107.29c-7.61-81.94 13.88-149 31.18-188 28.71 51.6 62.9 83.7 101.77 95.49 31.66 9.62 60.86 4 84.31-.49 24.07-4.62 38.1-6.78 46.51 2.37s6.14 26.67-12.78 104.85c-7.29 30.17-14.9 60.5-22.71 90.52Zm107-3.75c-23.06 20.69-56.25 31.23-98.73 31.4 10-37.85 19.79-76.35 29-114.6 20-82.49 23.2-103.32 9.25-118.52-7.76-8.46-17.48-11.2-28.62-11.2-9.64 0-20.34 2-31.76 4.24-23 4.41-49 9.4-77.14.87-38-11.53-71.52-45.5-99.68-101a108.59 108.59 0 0 1-7.9-42.38 7.5 7.5 0 0 0-15-.23 122.69 122.69 0 0 0 7.87 45.32c-18.44 38-46.23 113-37.53 206.48a382.49 382.49 0 0 0 31.26 119.54 7.77 7.77 0 0 0 .58 1.33c1.49 3.3 3 6.58 4.59 9.83-32.43-1.39-72.41-10.82-99.66-43.71-30.08-36.3-40.41-96.72-28.36-165.76C31.48 221 62.18 155.79 102 112.75c68.4-73.88 155.91-75.66 172.76-75.25 16.53.39 55.23 1.3 93.41 24.33 36.44 22 68.94 58.34 94 105.11 23.44 43.74 38.85 94.36 43.39 142.51 6.44 68.47-9.5 125.39-43.82 156.15Z" fill="#000000" class="color000000 svgShape"></path>
</svg>
