<svg xmlns="http://www.w3.org/2000/svg" id="cloth" enable-background="new 0 0 32 32" viewBox="0 0 32 32">
  <path fill="#c9e7f9" d="M27.993,25.57L24.74,13.604c-0.304-1.118-1.077-2.049-2.12-2.553l-2.995-1.446l0.007-0.007l-1.414-1.414      l-1.414,1.414L15.5,10.879l-1.282-1.282l-1.414-1.414L11.39,9.597l-3.01,1.453c-1.043,0.504-1.817,1.435-2.12,2.553L3.007,25.57      l3.86,1.049l3.144-9.567l0,0.253v11h11v-11l-0.022-0.253l3.144,9.567L27.993,25.57z"></path>
  <path fill="#a6daf6" d="M10.011,24.691l13.244-13.244c-0.2-0.148-0.408-0.286-0.635-0.396l-2.995-1.446l0.007-0.007l-1.414-1.414      l-1.414,1.414L15.5,10.879l-1.282-1.282l-1.414-1.414L11.39,9.597l-3.01,1.453c-1.043,0.504-1.817,1.435-2.12,2.553L3.007,25.57      l3.86,1.049l3.144-9.567l0,0.253V24.691z"></path>
  <polygon fill="#80c8ef" points="3.578 23.47 3.007 25.57 6.867 26.619 7.526 24.614"></polygon>
  <polygon fill="#a6daf6" points="27.444 23.47 28.015 25.57 24.155 26.619 23.496 24.614"></polygon>
  <path fill="#a6daf6" d="M12.804,8.183l0.944-0.687c0.171-0.124,0.377-0.192,0.589-0.192h2.349c0.211,0,0.418,0.067,0.589,0.192      l0.944,0.687l-0.937,1.005l-1.648,1.75L12.804,8.183z"></path>
  <rect width="2" height="4" x="12.511" y="8.304" fill="#80c8ef" transform="rotate(-45.001 13.511 10.304)"></rect>
  <rect width="2" height="4" x="16.511" y="8.304" fill="#80c8ef" transform="rotate(-134.999 17.511 10.304)"></rect>
  <path fill="#12a8e1" d="M15.511 5.804c-.276 0-.5-.224-.5-.5s.224-.5.5-.5c.276 0 .5-.224.5-.5 0-.42-.602-.646-.878-.328-.181.209-.498.231-.705.051-.209-.181-.231-.497-.051-.705.285-.329.698-.518 1.134-.518.827 0 1.5.673 1.5 1.5S16.338 5.804 15.511 5.804zM18.218 8.683c-.102 0-.205-.031-.294-.096L16.979 7.9c-.086-.063-.188-.096-.294-.096h-2.349c-.106 0-.208.033-.294.096l-.944.688c-.224.162-.536.114-.699-.11-.163-.224-.113-.536.11-.699l.944-.688c.258-.188.563-.287.883-.287h2.349c.319 0 .625.099.883.287l.944.688c.223.163.272.475.11.699C18.524 8.612 18.372 8.683 18.218 8.683z"></path>
  <path fill="#12a8e1" d="M15.511 7.804c-.276 0-.5-.224-.5-.5v-2c0-.276.224-.5.5-.5s.5.224.5.5v2C16.011 7.581 15.788 7.804 15.511 7.804zM14.218 12.925c-.128 0-.256-.049-.354-.146l-2.829-2.828C10.942 9.857 10.89 9.73 10.89 9.597s.053-.26.146-.354L12.45 7.83c.195-.195.512-.195.707 0l2.829 2.828c.094.094.146.221.146.354s-.053.26-.146.354l-1.414 1.414C14.474 12.876 14.346 12.925 14.218 12.925zM12.097 9.597l2.122 2.121.707-.707L12.804 8.89 12.097 9.597z"></path>
  <path fill="#12a8e1" d="M16.804 12.925c-.128 0-.256-.049-.354-.146l-1.414-1.414c-.094-.094-.146-.221-.146-.354s.053-.26.146-.354l2.829-2.828c.195-.195.512-.195.707 0l1.414 1.414c.094.094.146.221.146.354s-.053.26-.146.354l-2.829 2.828C17.06 12.876 16.932 12.925 16.804 12.925zM16.097 11.011l.707.707 2.122-2.121L18.218 8.89 16.097 11.011zM21.011 28.804h-11c-.276 0-.5-.224-.5-.5v-11c0-.276.224-.5.5-.5s.5.224.5.5v10.5h10v-10.5c0-.276.224-.5.5-.5s.5.224.5.5v11C21.511 28.58 21.288 28.804 21.011 28.804z"></path>
  <path fill="#12a8e1" d="M6.868,27.119c-0.043,0-0.087-0.006-0.131-0.018l-3.86-1.05c-0.266-0.072-0.423-0.347-0.351-0.613      l3.252-11.966c0.342-1.258,1.211-2.305,2.385-2.872l3.01-1.454c0.249-0.118,0.547-0.015,0.667,0.233      c0.12,0.249,0.016,0.547-0.233,0.667l-3.01,1.454c-0.913,0.441-1.589,1.255-1.855,2.234L3.621,25.218l2.92,0.794l2.995-9.116      c0.086-0.262,0.368-0.405,0.631-0.319c0.262,0.086,0.405,0.369,0.319,0.631l-3.144,9.567      C7.274,26.984,7.079,27.119,6.868,27.119z"></path>
  <path fill="#12a8e1" d="M7.441 25.119c-.043 0-.088-.006-.132-.018l-3.86-1.05c-.266-.072-.424-.348-.351-.613.073-.267.348-.423.614-.352l3.86 1.05c.266.072.424.348.351.613C7.863 24.973 7.661 25.119 7.441 25.119zM24.132 27.119c-.211 0-.406-.135-.475-.344l-3.144-9.567c-.086-.263.057-.545.319-.631.263-.085.545.057.631.319l2.995 9.116 2.92-.794-3.121-11.483c-.266-.979-.942-1.793-1.855-2.234l-3.01-1.454c-.249-.12-.353-.419-.233-.667.12-.248.419-.351.667-.233l3.01 1.454c1.174.566 2.043 1.613 2.385 2.872l3.252 11.966c.072.267-.085.541-.351.613l-3.86 1.05C24.22 27.113 24.176 27.119 24.132 27.119z"></path>
  <path fill="#12a8e1" d="M23.559,25.119c-0.22,0-0.421-0.146-0.482-0.369c-0.073-0.266,0.085-0.541,0.351-0.613l3.86-1.05      c0.265-0.072,0.541,0.085,0.614,0.352c0.073,0.266-0.085,0.541-0.351,0.613l-3.86,1.05      C23.646,25.113,23.602,25.119,23.559,25.119z"></path>
  <circle cx="15.511" cy="13.804" r=".5" fill="#12a8e1"></circle>
  <circle cx="15.511" cy="15.804" r=".5" fill="#12a8e1"></circle>
  <circle cx="15.511" cy="17.804" r=".5" fill="#12a8e1"></circle>
  <circle cx="15.511" cy="19.804" r=".5" fill="#12a8e1"></circle>
  <circle cx="15.511" cy="21.804" r=".5" fill="#12a8e1"></circle>
  <circle cx="15.511" cy="23.804" r=".5" fill="#12a8e1"></circle>
  <circle cx="15.511" cy="25.804" r=".5" fill="#12a8e1"></circle>
</svg>
