<svg xmlns="http://www.w3.org/2000/svg" width="640" height="520" viewBox="0 0 640 520" fill="none" aria-hidden="true">
  <rect width="640" height="520" fill="#F4F4F1"/>
  <path stroke="#0C0C09" stroke-opacity="0.03" d="M0 64h640M0 128h640M0 192h640M0 256h640M0 320h640M0 384h640M0 448h640"/>
  <path stroke="#0C0C09" stroke-opacity="0.03" d="M64 0v520M128 0v520M192 0v520M256 0v520M320 0v520M384 0v520M448 0v520M512 0v520M576 0v520"/>

  <!-- Ground shadow -->
  <ellipse cx="320" cy="468" rx="168" ry="16" fill="#0C0C09" fill-opacity="0.06"/>

  <!-- Shop facade -->
  <rect x="148" y="176" width="344" height="260" rx="8" fill="#FFFFFF" stroke="#0C0C09" stroke-width="2.5"/>
  <path d="M132 176h376l-24-56H156l-24 56z" fill="#0C0C09" fill-opacity="0.9"/>
  <path d="M156 120h328l16 56H140l16-56z" fill="#0C0C09" fill-opacity="0.72"/>

  <!-- Awning stripes -->
  <path d="M140 176h360" stroke="#F4F4F1" stroke-width="8" stroke-dasharray="18 14"/>

  <!-- Window -->
  <rect x="176" y="208" width="288" height="188" rx="6" fill="#EDECE8" stroke="#0C0C09" stroke-width="2"/>
  <path d="M320 208v188" stroke="#0C0C09" stroke-opacity="0.12" stroke-width="1.5"/>
  <path d="M176 302h288" stroke="#0C0C09" stroke-opacity="0.12" stroke-width="1.5"/>

  <!-- Display items left shelf -->
  <rect x="196" y="228" width="52" height="52" rx="6" fill="#FFFFFF" stroke="#0C0C09" stroke-width="1.5"/>
  <path d="M208 268c8-10 16-10 24 0" stroke="#0C0C09" stroke-width="1.5" fill="none"/>
  <ellipse cx="220" cy="248" rx="10" ry="8" fill="#D8D2C8" stroke="#0C0C09" stroke-width="1.5"/>

  <rect x="196" y="318" width="88" height="56" rx="6" fill="#E8E4DC" stroke="#0C0C09" stroke-width="1.5"/>
  <path d="M208 338h64M208 354h48" stroke="#0C0C09" stroke-opacity="0.18" stroke-width="2"/>

  <!-- Display items right shelf -->
  <circle cx="392" cy="252" r="22" fill="#FFFFFF" stroke="#0C0C09" stroke-width="1.5"/>
  <path d="M382 252h20M392 242v20" stroke="#0C0C09" stroke-opacity="0.2" stroke-width="1.5"/>

  <rect x="352" y="318" width="72" height="56" rx="28" fill="#FFFFFF" stroke="#0C0C09" stroke-width="1.5"/>
  <path d="M376 334v24" stroke="#0C0C09" stroke-width="2" stroke-linecap="round"/>

  <!-- Door -->
  <rect x="286" y="368" width="68" height="68" rx="4" fill="#0C0C09" fill-opacity="0.88"/>
  <circle cx="338" cy="402" r="4" fill="#F4F4F1"/>

  <!-- Sign -->
  <rect x="268" y="148" width="104" height="28" rx="6" fill="#FFFFFF" stroke="#0C0C09" stroke-width="2"/>
  <rect x="284" y="158" width="20" height="8" rx="2" fill="#0C0C09" fill-opacity="0.85"/>
  <rect x="310" y="158" width="36" height="8" rx="2" fill="#0C0C09" fill-opacity="0.25"/>
  <rect x="352" y="158" width="12" height="8" rx="2" fill="#0C0C09" fill-opacity="0.25"/>

  <!-- Shopping bag -->
  <path d="M468 300v72c0 10-8 18-18 18h-52c-10 0-18-8-18-18v-72" fill="#FFFFFF" stroke="#0C0C09" stroke-width="2"/>
  <path d="M372 300h96v16c0 8-6 14-14 14h-68c-8 0-14-6-14-14v-16z" fill="#EDECE8" stroke="#0C0C09" stroke-width="2"/>
  <path d="M396 300c0-16 10-28 24-28s24 12 24 28" stroke="#0C0C09" stroke-width="2" fill="none"/>
  <circle cx="408" cy="352" r="5" fill="#0C0C09" fill-opacity="0.15"/>
  <circle cx="432" cy="352" r="5" fill="#0C0C09" fill-opacity="0.15"/>

  <!-- Plant -->
  <path d="M116 404c0-28 14-52 28-68" stroke="#0C0C09" stroke-width="2" fill="none"/>
  <path d="M116 404c18-18 36-18 54 0" stroke="#0C0C09" stroke-width="2" fill="none"/>
  <ellipse cx="116" cy="412" rx="28" ry="10" fill="#D8D2C8" stroke="#0C0C09" stroke-width="1.5"/>
  <rect x="96" y="404" width="40" height="28" rx="4" fill="#FFFFFF" stroke="#0C0C09" stroke-width="1.5"/>
</svg>
