<svg xmlns="http://www.w3.org/2000/svg" width="800" height="1000" viewBox="0 0 800 1000" fill="none">
  <rect width="800" height="1000" fill="#F4F4F1"/>
  <ellipse cx="400" cy="800" rx="140" ry="18" fill="#0C0C09" fill-opacity="0.06"/>
  <path d="M320 760c0-80 24-140 40-200 16-60 24-100 24-140h112c0 40 8 80 24 140 16 60 40 120 40 200" fill="#E8E4DC" stroke="#0C0C09" stroke-width="3"/>
  <path d="M344 420h112" stroke="#0C0C09" stroke-width="3"/>
  <path d="M340 520c20 12 40 12 60 0s40-12 60 0 40 12 60 0" stroke="#0C0C09" stroke-opacity="0.15" stroke-width="2"/>
  <path d="M330 620c30 16 60 16 90 0s60-16 90 0 60 16 90 0" stroke="#0C0C09" stroke-opacity="0.12" stroke-width="2"/>
  <path d="M380 280c0-22 18-40 40-40s40 18 40 40" fill="#D8D2C8" stroke="#0C0C09" stroke-width="2"/>
</svg>
