<svg xmlns="http://www.w3.org/2000/svg" width="800" height="1000" viewBox="0 0 800 1000" fill="none">
  <rect width="800" height="1000" fill="#F4F4F1"/>
  <ellipse cx="400" cy="780" rx="200" ry="22" fill="#0C0C09" fill-opacity="0.06"/>
  <path d="M260 720V480c0-18 15-33 33-33h54c18 0 33 15 33 33v240" fill="#FFFFFF" stroke="#0C0C09" stroke-width="3"/>
  <path d="M420 720V480c0-18 15-33 33-33h54c18 0 33 15 33 33v240" fill="#F0EEEA" stroke="#0C0C09" stroke-width="3"/>
  <path d="M347 447h54M507 447h54" stroke="#0C0C09" stroke-width="3"/>
  <path d="M347 520c18-8 36-8 54 0M507 520c18-8 36-8 54 0" stroke="#0C0C09" stroke-opacity="0.12" stroke-width="2"/>
  <path d="M374 447h20v-40c0-11 9-20 20-20h0c11 0 20 9 20 20v40" fill="none" stroke="#0C0C09" stroke-width="2"/>
</svg>
